# xmcd CD database file
#
# Track frame offsets:
#	225
#	14667
#	32047
#	44157
#	57847
#	69914
#	86165
#	101504
#	116034
#	131738
#	146832
#	166117
#	176004
#
# Disc length: 2590 seconds
#
# Revision: 3
# Processed by: cddbd v1.4PL0 Copyright (c) Steve Scherf et al.
# Submitted via: CDex 1.50beta8
#
DISCID=bd0a1b0d
DTITLE=Vera Martinova - Nejsme si cizi
DYEAR=1990
DGENRE=Country
TTITLE0=Tentokrat mi neujede vlak
TTITLE1=Nerikej,ze jsi zapomnel
TTITLE2=Ja mam karu
TTITLE3=Jezdec z neznama
TTITLE4=Praska nam davny LP
TTITLE5=Ja znam Tvy rana
TTITLE6=Nejsme si cizi
TTITLE7=Pojd se toulat oblohou
TTITLE8=Z nudy valet sudy
TTITLE9=Tvuj zpusob
TTITLE10=Mlha
TTITLE11=Vsem pristim dnum
TTITLE12=O,Pane nas
EXTD=YEAR: 1990
EXTT0=
EXTT1=
EXTT2=
EXTT3=
EXTT4=
EXTT5=
EXTT6=
EXTT7=
EXTT8=
EXTT9=
EXTT10=
EXTT11=
EXTT12=
PLAYORDER=
